<svg xmlns="http://www.w3.org/2000/svg" xmlns:xlink="http://www.w3.org/1999/xlink" width="300" zoomAndPan="magnify" viewBox="0 0 224.87999 112.499997" height="150" preserveAspectRatio="xMidYMid meet" version="1.0"><defs><g/></defs><g fill="#00132b" fill-opacity="1"><g transform="translate(3.279303, 51.528923)"><g><path d="M 14.902344 -17.800781 L 1.078125 -10.863281 L 1.078125 -7.648438 L 14.902344 -0.648438 L 14.902344 -3.660156 L 3.84375 -9.25 L 14.902344 -14.839844 Z M 14.902344 -17.800781 "/></g></g></g><g fill="#00132b" fill-opacity="1"><g transform="translate(19.723741, 51.528923)"><g><path d="M 10.484375 -12.578125 L 10.398438 -10.914062 C 9.714844 -12.039062 8.269531 -12.824219 6.507812 -12.824219 C 3.378906 -12.824219 0.746094 -10.425781 0.746094 -6.59375 C 0.746094 -2.753906 3.363281 -0.292969 6.484375 -0.292969 C 8.125 -0.292969 9.566406 -1.003906 10.300781 -2.007812 L 10.300781 -0.207031 C 10.300781 2.261719 9.261719 3.671875 7.035156 3.671875 C 5.347656 3.671875 4.320312 2.886719 3.609375 1.261719 L 0.683594 2.507812 C 1.601562 4.894531 3.558594 6.410156 7.171875 6.410156 C 11.183594 6.410156 13.839844 4.429688 13.839844 -0.464844 L 13.839844 -12.578125 Z M 7.390625 -3.144531 C 5.566406 -3.144531 4.148438 -4.589844 4.148438 -6.59375 C 4.148438 -8.601562 5.542969 -10.03125 7.390625 -10.03125 C 9.25 -10.03125 10.644531 -8.539062 10.644531 -6.59375 C 10.644531 -4.636719 9.226562 -3.144531 7.390625 -3.144531 Z M 7.390625 -3.144531 "/></g></g><g transform="translate(35.397346, 51.528923)"><g><path d="M 13.65625 -6.472656 C 13.640625 -10.878906 10.988281 -12.847656 7.425781 -12.847656 C 3.546875 -12.847656 0.820312 -10.425781 0.820312 -6.289062 C 0.820312 -2.152344 3.476562 0.246094 7.535156 0.246094 C 10.363281 0.246094 12.628906 -1.210938 13.460938 -3.757812 L 10.230469 -4.234375 C 9.75 -3.121094 8.773438 -2.53125 7.511719 -2.53125 C 5.835938 -2.53125 4.441406 -3.535156 4.292969 -5.628906 L 13.617188 -5.628906 Z M 7.453125 -10.351562 C 8.957031 -10.351562 10.082031 -9.457031 10.191406 -7.695312 L 4.355469 -7.695312 C 4.636719 -9.542969 5.773438 -10.351562 7.453125 -10.351562 Z M 7.453125 -10.351562 "/></g></g></g><g fill="#00132b" fill-opacity="1"><g transform="translate(49.908584, 51.528923)"><g><path d="M 7.683594 0.246094 C 11.722656 0.246094 14.585938 -2.191406 14.585938 -6.300781 C 14.585938 -10.386719 11.734375 -12.835938 7.683594 -12.835938 C 3.660156 -12.835938 0.796875 -10.386719 0.796875 -6.300781 C 0.796875 -2.191406 3.683594 0.246094 7.683594 0.246094 Z M 7.648438 -2.558594 C 5.675781 -2.558594 4.292969 -4.050781 4.292969 -6.300781 C 4.292969 -8.550781 5.675781 -10.046875 7.648438 -10.046875 C 9.691406 -10.046875 11.085938 -8.550781 11.085938 -6.300781 C 11.085938 -4.050781 9.691406 -2.558594 7.648438 -2.558594 Z M 7.648438 -2.558594 "/></g></g><g transform="translate(65.288539, 51.528923)"><g><path d="M 5.273438 -10.71875 L 5.164062 -12.578125 L 1.824219 -12.578125 L 1.824219 0 L 5.371094 0 L 5.371094 -6.128906 C 5.371094 -8.796875 6.644531 -9.582031 9.3125 -9.582031 L 9.3125 -12.726562 C 7.5625 -12.726562 5.957031 -11.78125 5.273438 -10.71875 Z M 5.273438 -10.71875 "/></g></g></g><g fill="#00132b" fill-opacity="1"><g transform="translate(74.832186, 51.528923)"><g><path d="M 10.484375 -12.578125 L 10.398438 -10.914062 C 9.714844 -12.039062 8.269531 -12.824219 6.507812 -12.824219 C 3.378906 -12.824219 0.746094 -10.425781 0.746094 -6.59375 C 0.746094 -2.753906 3.363281 -0.292969 6.484375 -0.292969 C 8.125 -0.292969 9.566406 -1.003906 10.300781 -2.007812 L 10.300781 -0.207031 C 10.300781 2.261719 9.261719 3.671875 7.035156 3.671875 C 5.347656 3.671875 4.320312 2.886719 3.609375 1.261719 L 0.683594 2.507812 C 1.601562 4.894531 3.558594 6.410156 7.171875 6.410156 C 11.183594 6.410156 13.839844 4.429688 13.839844 -0.464844 L 13.839844 -12.578125 Z M 7.390625 -3.144531 C 5.566406 -3.144531 4.148438 -4.589844 4.148438 -6.59375 C 4.148438 -8.601562 5.542969 -10.03125 7.390625 -10.03125 C 9.25 -10.03125 10.644531 -8.539062 10.644531 -6.59375 C 10.644531 -4.636719 9.226562 -3.144531 7.390625 -3.144531 Z M 7.390625 -3.144531 "/></g></g></g><g fill="#00132b" fill-opacity="1"><g transform="translate(90.505791, 51.528923)"><g><path d="M 3.621094 -14.460938 C 4.710938 -14.460938 5.640625 -15.367188 5.640625 -16.492188 C 5.640625 -17.605469 4.710938 -18.511719 3.621094 -18.511719 C 2.507812 -18.511719 1.578125 -17.605469 1.578125 -16.492188 C 1.578125 -15.367188 2.507812 -14.460938 3.621094 -14.460938 Z M 1.824219 0 L 5.371094 0 L 5.371094 -12.578125 L 1.824219 -12.578125 Z M 1.824219 0 "/></g></g></g><g fill="#00132b" fill-opacity="1"><g transform="translate(97.700233, 51.528923)"><g><path d="M 13.65625 -6.472656 C 13.640625 -10.878906 10.988281 -12.847656 7.425781 -12.847656 C 3.546875 -12.847656 0.820312 -10.425781 0.820312 -6.289062 C 0.820312 -2.152344 3.476562 0.246094 7.535156 0.246094 C 10.363281 0.246094 12.628906 -1.210938 13.460938 -3.757812 L 10.230469 -4.234375 C 9.75 -3.121094 8.773438 -2.53125 7.511719 -2.53125 C 5.835938 -2.53125 4.441406 -3.535156 4.292969 -5.628906 L 13.617188 -5.628906 Z M 7.453125 -10.351562 C 8.957031 -10.351562 10.082031 -9.457031 10.191406 -7.695312 L 4.355469 -7.695312 C 4.636719 -9.542969 5.773438 -10.351562 7.453125 -10.351562 Z M 7.453125 -10.351562 "/></g></g><g transform="translate(112.211471, 51.528923)"><g/></g><g transform="translate(118.720728, 51.528923)"><g><path d="M 7.511719 0.234375 C 10.632812 0.234375 13.078125 -1.429688 13.691406 -4.40625 L 10.4375 -4.757812 C 10.046875 -3.265625 8.957031 -2.558594 7.476562 -2.558594 C 5.578125 -2.558594 4.292969 -4.0625 4.292969 -6.300781 C 4.292969 -8.550781 5.578125 -10.046875 7.476562 -10.046875 C 8.957031 -10.046875 10.046875 -9.347656 10.4375 -7.84375 L 13.691406 -8.199219 C 13.078125 -11.171875 10.695312 -12.824219 7.511719 -12.824219 C 3.558594 -12.824219 0.769531 -10.214844 0.769531 -6.300781 C 0.769531 -2.398438 3.558594 0.234375 7.511719 0.234375 Z M 7.511719 0.234375 "/></g></g></g><g fill="#00132b" fill-opacity="1"><g transform="translate(133.097376, 51.528923)"><g><path d="M 7.683594 0.246094 C 11.722656 0.246094 14.585938 -2.191406 14.585938 -6.300781 C 14.585938 -10.386719 11.734375 -12.835938 7.683594 -12.835938 C 3.660156 -12.835938 0.796875 -10.386719 0.796875 -6.300781 C 0.796875 -2.191406 3.683594 0.246094 7.683594 0.246094 Z M 7.648438 -2.558594 C 5.675781 -2.558594 4.292969 -4.050781 4.292969 -6.300781 C 4.292969 -8.550781 5.675781 -10.046875 7.648438 -10.046875 C 9.691406 -10.046875 11.085938 -8.550781 11.085938 -6.300781 C 11.085938 -4.050781 9.691406 -2.558594 7.648438 -2.558594 Z M 7.648438 -2.558594 "/></g></g></g><g fill="#00132b" fill-opacity="1"><g transform="translate(148.47733, 51.528923)"><g><path d="M 10.742188 -18.792969 L 10.742188 -11.0625 C 9.996094 -12.199219 8.539062 -12.824219 6.886719 -12.824219 C 3.585938 -12.824219 0.832031 -10.375 0.832031 -6.265625 C 0.832031 -2.152344 3.574219 0.292969 6.886719 0.292969 C 8.601562 0.292969 10.117188 -0.402344 10.839844 -1.640625 L 10.925781 0 L 14.265625 0 L 14.265625 -18.792969 Z M 7.695312 -2.628906 C 5.824219 -2.628906 4.355469 -4.011719 4.355469 -6.265625 C 4.355469 -8.527344 5.824219 -9.910156 7.695312 -9.910156 C 9.554688 -9.910156 11.023438 -8.46875 11.023438 -6.265625 C 11.023438 -4.0625 9.566406 -2.628906 7.695312 -2.628906 Z M 7.695312 -2.628906 "/></g></g><g transform="translate(164.566941, 51.528923)"><g><path d="M 13.65625 -6.472656 C 13.640625 -10.878906 10.988281 -12.847656 7.425781 -12.847656 C 3.546875 -12.847656 0.820312 -10.425781 0.820312 -6.289062 C 0.820312 -2.152344 3.476562 0.246094 7.535156 0.246094 C 10.363281 0.246094 12.628906 -1.210938 13.460938 -3.757812 L 10.230469 -4.234375 C 9.75 -3.121094 8.773438 -2.53125 7.511719 -2.53125 C 5.835938 -2.53125 4.441406 -3.535156 4.292969 -5.628906 L 13.617188 -5.628906 Z M 7.453125 -10.351562 C 8.957031 -10.351562 10.082031 -9.457031 10.191406 -7.695312 L 4.355469 -7.695312 C 4.636719 -9.542969 5.773438 -10.351562 7.453125 -10.351562 Z M 7.453125 -10.351562 "/></g></g></g><g fill="#00132b" fill-opacity="1"><g transform="translate(179.078178, 51.528923)"><g><path d="M 6.253906 0.246094 C 8.96875 0.246094 11.429688 -0.796875 11.429688 -3.683594 C 11.429688 -6.375 9.300781 -7.21875 7.351562 -7.746094 C 5.773438 -8.171875 4.320312 -8.367188 4.320312 -9.359375 C 4.320312 -10.144531 5.113281 -10.472656 6.042969 -10.472656 C 7.070312 -10.472656 7.902344 -10.058594 8.285156 -8.882812 L 11.28125 -9.496094 C 10.792969 -11.894531 8.480469 -12.824219 6.03125 -12.824219 C 3.242188 -12.824219 1.101562 -11.636719 1.101562 -9.054688 C 1.101562 -6.9375 2.546875 -6.128906 4.050781 -5.605469 C 6.042969 -4.894531 8.027344 -4.785156 8.039062 -3.476562 C 8.0625 -2.484375 7.121094 -2.214844 6.253906 -2.214844 C 5.066406 -2.214844 4.109375 -2.742188 3.730469 -4.085938 L 0.78125 -3.253906 C 1.234375 -0.867188 3.425781 0.246094 6.253906 0.246094 Z M 6.253906 0.246094 "/></g></g><g transform="translate(191.411507, 51.528923)"><g><path d="M -0.304688 4.980469 L 3.023438 4.980469 L 15.207031 -18.792969 L 11.894531 -18.792969 Z M -0.304688 4.980469 "/></g></g></g><g fill="#00132b" fill-opacity="1"><g transform="translate(206.326515, 51.528923)"><g><path d="M 1.542969 -17.800781 L 1.542969 -14.839844 L 12.601562 -9.25 L 1.542969 -3.660156 L 1.542969 -0.648438 L 15.367188 -7.648438 L 15.367188 -10.863281 Z M 1.542969 -17.800781 "/></g></g></g><g fill="#00132b" fill-opacity="1"><g transform="translate(113.028444, 64.536228)"><g/></g></g></svg>