<svg xmlns="http://www.w3.org/2000/svg" xmlns:xlink="http://www.w3.org/1999/xlink" width="300" zoomAndPan="magnify" viewBox="0 0 224.87999 60" height="80" preserveAspectRatio="xMidYMid meet" version="1.0"><defs><g/></defs><g fill="#00122a" fill-opacity="1"><g transform="translate(7.327864, 35.490412)"><g><path d="M 14.273438 -17.050781 L 1.03125 -10.40625 L 1.03125 -7.324219 L 14.273438 -0.621094 L 14.273438 -3.503906 L 3.679688 -8.859375 L 14.273438 -14.214844 Z M 14.273438 -17.050781 "/></g></g></g><g fill="#00122a" fill-opacity="1"><g transform="translate(23.077149, 35.490412)"><g><path d="M 10.042969 -12.046875 L 9.960938 -10.453125 C 9.304688 -11.53125 7.921875 -12.28125 6.234375 -12.28125 C 3.234375 -12.28125 0.714844 -9.984375 0.714844 -6.316406 C 0.714844 -2.636719 3.222656 -0.28125 6.210938 -0.28125 C 7.78125 -0.28125 9.164062 -0.960938 9.867188 -1.921875 L 9.867188 -0.199219 C 9.867188 2.167969 8.871094 3.515625 6.738281 3.515625 C 5.121094 3.515625 4.136719 2.765625 3.457031 1.207031 L 0.65625 2.402344 C 1.535156 4.6875 3.410156 6.140625 6.867188 6.140625 C 10.710938 6.140625 13.253906 4.242188 13.253906 -0.445312 L 13.253906 -12.046875 Z M 7.078125 -3.011719 C 5.332031 -3.011719 3.972656 -4.394531 3.972656 -6.316406 C 3.972656 -8.238281 5.308594 -9.609375 7.078125 -9.609375 C 8.859375 -9.609375 10.195312 -8.179688 10.195312 -6.316406 C 10.195312 -4.441406 8.835938 -3.011719 7.078125 -3.011719 Z M 7.078125 -3.011719 "/></g></g></g><g fill="#00122a" fill-opacity="1"><g transform="translate(38.088192, 35.490412)"><g><path d="M 13.078125 -6.199219 C 13.066406 -10.417969 10.523438 -12.304688 7.113281 -12.304688 C 3.398438 -12.304688 0.785156 -9.984375 0.785156 -6.023438 C 0.785156 -2.0625 3.328125 0.234375 7.21875 0.234375 C 9.925781 0.234375 12.09375 -1.160156 12.890625 -3.597656 L 9.796875 -4.054688 C 9.339844 -2.988281 8.402344 -2.425781 7.195312 -2.425781 C 5.589844 -2.425781 4.253906 -3.386719 4.113281 -5.390625 L 13.042969 -5.390625 Z M 7.136719 -9.914062 C 8.578125 -9.914062 9.65625 -9.058594 9.761719 -7.371094 L 4.171875 -7.371094 C 4.441406 -9.140625 5.53125 -9.914062 7.136719 -9.914062 Z M 7.136719 -9.914062 "/></g></g></g><g fill="#00122a" fill-opacity="1"><g transform="translate(51.985999, 35.490412)"><g><path d="M 7.359375 0.234375 C 11.226562 0.234375 13.96875 -2.097656 13.96875 -6.035156 C 13.96875 -9.949219 11.238281 -12.292969 7.359375 -12.292969 C 3.503906 -12.292969 0.761719 -9.949219 0.761719 -6.035156 C 0.761719 -2.097656 3.527344 0.234375 7.359375 0.234375 Z M 7.324219 -2.449219 C 5.4375 -2.449219 4.113281 -3.878906 4.113281 -6.035156 C 4.113281 -8.191406 5.4375 -9.621094 7.324219 -9.621094 C 9.28125 -9.621094 10.617188 -8.191406 10.617188 -6.035156 C 10.617188 -3.878906 9.28125 -2.449219 7.324219 -2.449219 Z M 7.324219 -2.449219 "/></g></g></g><g fill="#00122a" fill-opacity="1"><g transform="translate(66.715805, 35.490412)"><g><path d="M 5.050781 -10.265625 L 4.945312 -12.046875 L 1.746094 -12.046875 L 1.746094 0 L 5.144531 0 L 5.144531 -5.871094 C 5.144531 -8.425781 6.363281 -9.175781 8.917969 -9.175781 L 8.917969 -12.1875 C 7.242188 -12.1875 5.707031 -11.285156 5.050781 -10.265625 Z M 5.050781 -10.265625 "/></g></g></g><g fill="#00122a" fill-opacity="1"><g transform="translate(75.856015, 35.490412)"><g><path d="M 10.042969 -12.046875 L 9.960938 -10.453125 C 9.304688 -11.53125 7.921875 -12.28125 6.234375 -12.28125 C 3.234375 -12.28125 0.714844 -9.984375 0.714844 -6.316406 C 0.714844 -2.636719 3.222656 -0.28125 6.210938 -0.28125 C 7.78125 -0.28125 9.164062 -0.960938 9.867188 -1.921875 L 9.867188 -0.199219 C 9.867188 2.167969 8.871094 3.515625 6.738281 3.515625 C 5.121094 3.515625 4.136719 2.765625 3.457031 1.207031 L 0.65625 2.402344 C 1.535156 4.6875 3.410156 6.140625 6.867188 6.140625 C 10.710938 6.140625 13.253906 4.242188 13.253906 -0.445312 L 13.253906 -12.046875 Z M 7.078125 -3.011719 C 5.332031 -3.011719 3.972656 -4.394531 3.972656 -6.316406 C 3.972656 -8.238281 5.308594 -9.609375 7.078125 -9.609375 C 8.859375 -9.609375 10.195312 -8.179688 10.195312 -6.316406 C 10.195312 -4.441406 8.835938 -3.011719 7.078125 -3.011719 Z M 7.078125 -3.011719 "/></g></g></g><g fill="#00122a" fill-opacity="1"><g transform="translate(90.867058, 35.490412)"><g><path d="M 3.46875 -13.851562 C 4.511719 -13.851562 5.402344 -14.71875 5.402344 -15.796875 C 5.402344 -16.863281 4.511719 -17.730469 3.46875 -17.730469 C 2.402344 -17.730469 1.511719 -16.863281 1.511719 -15.796875 C 1.511719 -14.71875 2.402344 -13.851562 3.46875 -13.851562 Z M 1.746094 0 L 5.144531 0 L 5.144531 -12.046875 L 1.746094 -12.046875 Z M 1.746094 0 "/></g></g></g><g fill="#00122a" fill-opacity="1"><g transform="translate(97.75737, 35.490412)"><g><path d="M 13.078125 -6.199219 C 13.066406 -10.417969 10.523438 -12.304688 7.113281 -12.304688 C 3.398438 -12.304688 0.785156 -9.984375 0.785156 -6.023438 C 0.785156 -2.0625 3.328125 0.234375 7.21875 0.234375 C 9.925781 0.234375 12.09375 -1.160156 12.890625 -3.597656 L 9.796875 -4.054688 C 9.339844 -2.988281 8.402344 -2.425781 7.195312 -2.425781 C 5.589844 -2.425781 4.253906 -3.386719 4.113281 -5.390625 L 13.042969 -5.390625 Z M 7.136719 -9.914062 C 8.578125 -9.914062 9.65625 -9.058594 9.761719 -7.371094 L 4.171875 -7.371094 C 4.441406 -9.140625 5.53125 -9.914062 7.136719 -9.914062 Z M 7.136719 -9.914062 "/></g></g></g><g fill="#00122a" fill-opacity="1"><g transform="translate(111.655176, 35.490412)"><g/></g></g><g fill="#00122a" fill-opacity="1"><g transform="translate(117.889268, 35.490412)"><g><path d="M 7.195312 0.222656 C 10.183594 0.222656 12.527344 -1.371094 13.113281 -4.21875 L 9.996094 -4.558594 C 9.621094 -3.128906 8.578125 -2.449219 7.160156 -2.449219 C 5.34375 -2.449219 4.113281 -3.890625 4.113281 -6.035156 C 4.113281 -8.191406 5.34375 -9.621094 7.160156 -9.621094 C 8.578125 -9.621094 9.621094 -8.953125 9.996094 -7.511719 L 13.113281 -7.851562 C 12.527344 -10.699219 10.242188 -12.28125 7.195312 -12.28125 C 3.410156 -12.28125 0.738281 -9.785156 0.738281 -6.035156 C 0.738281 -2.296875 3.410156 0.222656 7.195312 0.222656 Z M 7.195312 0.222656 "/></g></g></g><g fill="#00122a" fill-opacity="1"><g transform="translate(131.65818, 35.490412)"><g><path d="M 7.359375 0.234375 C 11.226562 0.234375 13.96875 -2.097656 13.96875 -6.035156 C 13.96875 -9.949219 11.238281 -12.292969 7.359375 -12.292969 C 3.503906 -12.292969 0.761719 -9.949219 0.761719 -6.035156 C 0.761719 -2.097656 3.527344 0.234375 7.359375 0.234375 Z M 7.324219 -2.449219 C 5.4375 -2.449219 4.113281 -3.878906 4.113281 -6.035156 C 4.113281 -8.191406 5.4375 -9.621094 7.324219 -9.621094 C 9.28125 -9.621094 10.617188 -8.191406 10.617188 -6.035156 C 10.617188 -3.878906 9.28125 -2.449219 7.324219 -2.449219 Z M 7.324219 -2.449219 "/></g></g></g><g fill="#00122a" fill-opacity="1"><g transform="translate(146.387986, 35.490412)"><g><path d="M 10.289062 -18 L 10.289062 -10.59375 C 9.574219 -11.683594 8.179688 -12.28125 6.597656 -12.28125 C 3.433594 -12.28125 0.796875 -9.9375 0.796875 -6 C 0.796875 -2.0625 3.421875 0.28125 6.597656 0.28125 C 8.238281 0.28125 9.691406 -0.386719 10.382812 -1.570312 L 10.464844 0 L 13.664062 0 L 13.664062 -18 Z M 7.371094 -2.519531 C 5.578125 -2.519531 4.171875 -3.84375 4.171875 -6 C 4.171875 -8.167969 5.578125 -9.492188 7.371094 -9.492188 C 9.152344 -9.492188 10.558594 -8.109375 10.558594 -6 C 10.558594 -3.890625 9.164062 -2.519531 7.371094 -2.519531 Z M 7.371094 -2.519531 "/></g></g></g><g fill="#00122a" fill-opacity="1"><g transform="translate(161.797448, 35.490412)"><g><path d="M 13.078125 -6.199219 C 13.066406 -10.417969 10.523438 -12.304688 7.113281 -12.304688 C 3.398438 -12.304688 0.785156 -9.984375 0.785156 -6.023438 C 0.785156 -2.0625 3.328125 0.234375 7.21875 0.234375 C 9.925781 0.234375 12.09375 -1.160156 12.890625 -3.597656 L 9.796875 -4.054688 C 9.339844 -2.988281 8.402344 -2.425781 7.195312 -2.425781 C 5.589844 -2.425781 4.253906 -3.386719 4.113281 -5.390625 L 13.042969 -5.390625 Z M 7.136719 -9.914062 C 8.578125 -9.914062 9.65625 -9.058594 9.761719 -7.371094 L 4.171875 -7.371094 C 4.441406 -9.140625 5.53125 -9.914062 7.136719 -9.914062 Z M 7.136719 -9.914062 "/></g></g></g><g fill="#00122a" fill-opacity="1"><g transform="translate(175.695254, 35.490412)"><g><path d="M 5.988281 0.234375 C 8.589844 0.234375 10.945312 -0.761719 10.945312 -3.527344 C 10.945312 -6.105469 8.90625 -6.914062 7.042969 -7.417969 C 5.53125 -7.828125 4.136719 -8.015625 4.136719 -8.964844 C 4.136719 -9.714844 4.898438 -10.03125 5.789062 -10.03125 C 6.773438 -10.03125 7.570312 -9.632812 7.933594 -8.507812 L 10.804688 -9.09375 C 10.335938 -11.390625 8.121094 -12.28125 5.777344 -12.28125 C 3.105469 -12.28125 1.054688 -11.144531 1.054688 -8.671875 C 1.054688 -6.644531 2.4375 -5.871094 3.878906 -5.367188 C 5.789062 -4.6875 7.6875 -4.582031 7.699219 -3.328125 C 7.722656 -2.378906 6.820312 -2.121094 5.988281 -2.121094 C 4.851562 -2.121094 3.9375 -2.625 3.574219 -3.914062 L 0.75 -3.117188 C 1.183594 -0.832031 3.28125 0.234375 5.988281 0.234375 Z M 5.988281 0.234375 "/></g></g></g><g fill="#00122a" fill-opacity="1"><g transform="translate(187.507218, 35.490412)"><g><path d="M -0.292969 4.769531 L 2.894531 4.769531 L 14.566406 -18 L 11.390625 -18 Z M -0.292969 4.769531 "/></g></g></g><g fill="#00122a" fill-opacity="1"><g transform="translate(201.79172, 35.490412)"><g><path d="M 1.476562 -17.050781 L 1.476562 -14.214844 L 12.070312 -8.859375 L 1.476562 -3.503906 L 1.476562 -0.621094 L 14.71875 -7.324219 L 14.71875 -10.40625 Z M 1.476562 -17.050781 "/></g></g></g><g fill="#00122a" fill-opacity="1"><g transform="translate(112.43583, 47.484011)"><g/></g></g></svg>