<svg xmlns="http://www.w3.org/2000/svg" xmlns:xlink="http://www.w3.org/1999/xlink" width="300" zoomAndPan="magnify" viewBox="0 0 224.87999 44.999999" height="60" preserveAspectRatio="xMidYMid meet" version="1.0"><defs><g/></defs><g fill="rgb(100%, 70.588684%, 0%)" fill-opacity="1"><g transform="translate(3.515189, 34.118798)"><g><path d="M 9.320312 0.21875 C 12.246094 0.21875 14.167969 -0.597656 15.550781 -2.738281 C 15.835938 -3.335938 16.371094 -3.242188 16.308594 -2.550781 C 16.246094 -1.953125 16.152344 -1.324219 16.089844 -0.851562 C 16.023438 -0.347656 16.371094 -0.03125 16.8125 0 C 18.355469 0.09375 19.582031 0.09375 20.652344 0.03125 C 21.125 -0.03125 21.410156 -0.347656 21.410156 -0.851562 C 21.441406 -4.816406 21.1875 -8.40625 20.84375 -12.027344 C 20.808594 -12.46875 20.558594 -12.78125 20.054688 -12.78125 C 18.480469 -12.8125 16.96875 -12.8125 15.394531 -12.78125 C 14.765625 -12.78125 14.546875 -12.152344 14.890625 -11.742188 C 15.488281 -10.863281 15.804688 -10.167969 15.804688 -8.65625 C 15.804688 -6.109375 13.945312 -3.96875 10.957031 -3.96875 C 7.964844 -3.933594 5.507812 -5.605469 5.507812 -10.359375 C 5.507812 -15.425781 8.21875 -18.132812 11.398438 -18.132812 C 14.546875 -18.132812 16.214844 -16.84375 17.597656 -15.144531 C 18.039062 -14.515625 18.734375 -14.609375 18.796875 -15.363281 C 18.890625 -16.402344 19.203125 -18.449219 19.269531 -19.363281 C 19.300781 -19.898438 19.140625 -20.371094 18.699219 -20.683594 C 16.90625 -21.566406 14.011719 -22.289062 11.460938 -22.289062 C 5.101562 -22.257812 0.597656 -17.597656 0.597656 -10.199219 C 0.597656 -2.894531 4.910156 0.21875 9.320312 0.21875 Z M 9.320312 0.21875 "/></g></g></g><g fill="rgb(100%, 70.588684%, 0%)" fill-opacity="1"><g transform="translate(25.679389, 34.118798)"><g><path d="M 9.726562 0.25 C 11.933594 0.25 14.640625 -0.21875 16.183594 -1.257812 C 16.433594 -1.417969 16.589844 -1.761719 16.589844 -2.109375 C 16.558594 -3.023438 16.527344 -4.03125 16.464844 -4.941406 C 16.433594 -5.792969 15.773438 -5.980469 15.300781 -5.414062 C 14.105469 -4.3125 12.058594 -3.527344 10.421875 -3.527344 C 8.25 -3.527344 5.917969 -4.816406 5.164062 -6.578125 C 4.753906 -7.179688 5.132812 -7.652344 5.761719 -7.242188 C 6.988281 -6.578125 8.65625 -6.296875 10.390625 -6.296875 C 13.539062 -6.296875 16.371094 -8.375 16.371094 -11.492188 C 16.371094 -15.332031 13.347656 -17.378906 8.910156 -17.378906 C 4.125 -17.378906 0.566406 -14.261719 0.566406 -8.753906 C 0.566406 -2.992188 4.1875 0.25 9.726562 0.25 Z M 9.160156 -8.722656 C 7.523438 -8.722656 5.039062 -9.289062 5.039062 -10.578125 C 5.039062 -12.625 7.050781 -13.851562 8.972656 -13.851562 C 11.175781 -13.851562 12.089844 -12.875 12.089844 -11.238281 C 12.089844 -9.664062 10.957031 -8.722656 9.160156 -8.722656 Z M 9.160156 -8.722656 "/></g></g></g><g fill="rgb(100%, 70.588684%, 0%)" fill-opacity="1"><g transform="translate(42.869243, 34.118798)"><g><path d="M 9.382812 0.25 C 14.417969 0.25 18.132812 -2.644531 18.132812 -8.4375 C 18.132812 -14.074219 14.449219 -17.378906 9.382812 -17.378906 C 4.28125 -17.378906 0.566406 -14.074219 0.566406 -8.4375 C 0.566406 -2.644531 4.34375 0.25 9.382812 0.25 Z M 9.382812 -3.464844 C 6.894531 -3.464844 5.101562 -5.289062 5.101562 -8.59375 C 5.101562 -11.742188 6.832031 -13.664062 9.382812 -13.664062 C 11.902344 -13.664062 13.664062 -11.742188 13.664062 -8.59375 C 13.664062 -5.289062 11.835938 -3.464844 9.382812 -3.464844 Z M 9.382812 -3.464844 "/></g></g></g><g fill="rgb(100%, 70.588684%, 0%)" fill-opacity="1"><g transform="translate(61.570284, 34.118798)"><g><path d="M 3.210938 0.125 C 3.871094 0.125 4.753906 0.09375 5.226562 0.03125 C 5.605469 -0.03125 5.980469 -0.347656 5.949219 -0.882812 C 5.855469 -2.203125 5.574219 -5.039062 5.574219 -7.460938 C 5.574219 -10.863281 7.714844 -12.875 10.042969 -12.875 C 11.300781 -12.875 12.5625 -12.59375 13.695312 -11.617188 C 14.136719 -11.113281 14.953125 -11.269531 14.984375 -12.089844 C 15.050781 -13.410156 15.082031 -14.449219 15.082031 -15.742188 C 15.082031 -16.214844 14.859375 -16.496094 14.449219 -16.71875 C 13.789062 -17.09375 12.59375 -17.347656 11.648438 -17.347656 C 9.351562 -17.347656 7.367188 -16.371094 6.359375 -13.980469 C 6.109375 -13.316406 5.667969 -13.476562 5.667969 -14.105469 C 5.667969 -14.921875 5.824219 -15.457031 6.042969 -16.277344 C 6.171875 -16.6875 5.855469 -17.03125 5.351562 -17.125 C 4.972656 -17.222656 4.0625 -17.253906 3.558594 -17.253906 C 3.023438 -17.253906 2.328125 -17.222656 1.859375 -17.125 C 1.480469 -17.0625 1.226562 -16.78125 1.164062 -16.339844 C 0.820312 -11.617188 0.820312 -8.1875 0.785156 -0.882812 C 0.785156 -0.378906 1.101562 -0.0625 1.480469 0 C 2.015625 0.09375 2.863281 0.125 3.210938 0.125 Z M 3.210938 0.125 "/></g></g></g><g fill="rgb(100%, 70.588684%, 0%)" fill-opacity="1"><g transform="translate(77.185973, 34.118798)"><g><path d="M 9.066406 7.492188 C 14.578125 7.492188 18.511719 5.164062 18.511719 -1.257812 C 18.511719 -7.398438 18.480469 -12.625 18.070312 -16.339844 C 18.007812 -16.75 17.757812 -17.03125 17.347656 -17.125 C 16.9375 -17.222656 16.371094 -17.253906 15.773438 -17.253906 C 15.144531 -17.253906 14.417969 -17.222656 14.042969 -17.125 C 13.632812 -17.03125 13.285156 -16.75 13.347656 -16.308594 C 13.410156 -15.773438 13.539062 -15.144531 13.570312 -14.671875 C 13.601562 -14.011719 13.253906 -13.945312 12.972656 -14.449219 C 11.742188 -16.339844 9.792969 -17.378906 7.523438 -17.378906 C 3.589844 -17.378906 0.722656 -14.105469 0.722656 -8.53125 C 0.722656 -2.800781 3.621094 0.285156 7.523438 0.285156 C 9.824219 0.285156 11.773438 -0.503906 12.90625 -2.328125 C 13.253906 -2.992188 13.820312 -2.960938 13.820312 -2.171875 L 13.820312 -1.636719 C 13.820312 1.324219 11.207031 3.273438 7.964844 3.273438 C 6.011719 3.273438 3.746094 2.707031 2.296875 1.699219 C 1.859375 1.195312 1.195312 1.417969 1.101562 2.140625 L 0.820312 5.574219 C 0.753906 6.109375 1.039062 6.484375 1.511719 6.675781 C 3.496094 7.304688 6.738281 7.492188 9.066406 7.492188 Z M 9.445312 -3.433594 C 6.988281 -3.433594 5.226562 -5.351562 5.226562 -8.59375 C 5.226562 -11.710938 6.957031 -13.601562 9.445312 -13.601562 C 11.902344 -13.570312 13.664062 -11.710938 13.664062 -8.59375 C 13.664062 -5.351562 11.835938 -3.433594 9.445312 -3.433594 Z M 9.445312 -3.433594 "/></g></g></g><g fill="rgb(100%, 70.588684%, 0%)" fill-opacity="1"><g transform="translate(96.45372, 34.118798)"><g><path d="M 3.398438 -18.765625 C 4.972656 -18.765625 6.078125 -19.707031 6.078125 -21 C 6.078125 -22.320312 4.972656 -23.265625 3.398438 -23.265625 C 1.859375 -23.265625 0.753906 -22.320312 0.753906 -21 C 0.753906 -19.707031 1.859375 -18.765625 3.398438 -18.765625 Z M 3.464844 0.125 C 3.808594 0.125 4.628906 0.09375 5.164062 0 C 5.542969 -0.09375 5.855469 -0.378906 5.855469 -0.882812 C 5.855469 -8.1875 5.824219 -11.648438 5.507812 -16.339844 C 5.476562 -16.875 5.257812 -17.03125 4.847656 -17.125 C 4.4375 -17.222656 3.777344 -17.253906 3.496094 -17.253906 C 3.148438 -17.253906 2.425781 -17.222656 1.984375 -17.125 C 1.574219 -17.0625 1.355469 -16.875 1.324219 -16.339844 C 1.007812 -11.648438 0.976562 -8.1875 0.976562 -0.914062 C 0.976562 -0.410156 1.289062 -0.09375 1.667969 0 C 2.203125 0.125 3.117188 0.125 3.464844 0.125 Z M 3.464844 0.125 "/></g></g></g><g fill="rgb(100%, 70.588684%, 0%)" fill-opacity="1"><g transform="translate(103.285584, 34.118798)"><g><path d="M 9.726562 0.25 C 11.933594 0.25 14.640625 -0.21875 16.183594 -1.257812 C 16.433594 -1.417969 16.589844 -1.761719 16.589844 -2.109375 C 16.558594 -3.023438 16.527344 -4.03125 16.464844 -4.941406 C 16.433594 -5.792969 15.773438 -5.980469 15.300781 -5.414062 C 14.105469 -4.3125 12.058594 -3.527344 10.421875 -3.527344 C 8.25 -3.527344 5.917969 -4.816406 5.164062 -6.578125 C 4.753906 -7.179688 5.132812 -7.652344 5.761719 -7.242188 C 6.988281 -6.578125 8.65625 -6.296875 10.390625 -6.296875 C 13.539062 -6.296875 16.371094 -8.375 16.371094 -11.492188 C 16.371094 -15.332031 13.347656 -17.378906 8.910156 -17.378906 C 4.125 -17.378906 0.566406 -14.261719 0.566406 -8.753906 C 0.566406 -2.992188 4.1875 0.25 9.726562 0.25 Z M 9.160156 -8.722656 C 7.523438 -8.722656 5.039062 -9.289062 5.039062 -10.578125 C 5.039062 -12.625 7.050781 -13.851562 8.972656 -13.851562 C 11.175781 -13.851562 12.089844 -12.875 12.089844 -11.238281 C 12.089844 -9.664062 10.957031 -8.722656 9.160156 -8.722656 Z M 9.160156 -8.722656 "/></g></g></g><g fill="rgb(100%, 70.588684%, 0%)" fill-opacity="1"><g transform="translate(120.475438, 34.118798)"><g/></g></g><g fill="rgb(100%, 70.588684%, 0%)" fill-opacity="1"><g transform="translate(128.944432, 34.118798)"><g><path d="M 11.617188 0.21875 C 13.820312 0.21875 17.566406 -0.285156 19.332031 -1.070312 C 19.644531 -1.257812 19.929688 -1.636719 19.898438 -2.109375 C 19.835938 -3.808594 19.769531 -5.507812 19.675781 -7.210938 C 19.613281 -8.089844 18.699219 -8.25 18.355469 -7.492188 C 17.125 -5.039062 14.671875 -3.839844 11.617188 -3.839844 C 8.28125 -3.839844 5.476562 -5.574219 5.476562 -10.390625 C 5.476562 -15.488281 8.089844 -18.292969 11.398438 -18.292969 C 14.578125 -18.292969 16.308594 -16.875 17.441406 -14.828125 C 17.757812 -14.167969 18.574219 -14.292969 18.636719 -14.953125 C 18.699219 -15.617188 18.921875 -19.046875 18.953125 -19.613281 C 18.984375 -20.054688 18.859375 -20.433594 18.511719 -20.652344 C 16.71875 -21.535156 14.011719 -22.289062 11.460938 -22.289062 C 5.101562 -22.289062 0.628906 -17.628906 0.628906 -10.199219 C 0.628906 -2.832031 5.226562 0.21875 11.617188 0.21875 Z M 11.617188 0.21875 "/></g></g></g><g fill="rgb(100%, 70.588684%, 0%)" fill-opacity="1"><g transform="translate(149.565957, 34.118798)"><g><path d="M 9.382812 0.25 C 14.417969 0.25 18.132812 -2.644531 18.132812 -8.4375 C 18.132812 -14.074219 14.449219 -17.378906 9.382812 -17.378906 C 4.28125 -17.378906 0.566406 -14.074219 0.566406 -8.4375 C 0.566406 -2.644531 4.34375 0.25 9.382812 0.25 Z M 9.382812 -3.464844 C 6.894531 -3.464844 5.101562 -5.289062 5.101562 -8.59375 C 5.101562 -11.742188 6.832031 -13.664062 9.382812 -13.664062 C 11.902344 -13.664062 13.664062 -11.742188 13.664062 -8.59375 C 13.664062 -5.289062 11.835938 -3.464844 9.382812 -3.464844 Z M 9.382812 -3.464844 "/></g></g></g><g fill="rgb(100%, 70.588684%, 0%)" fill-opacity="1"><g transform="translate(168.266998, 34.118798)"><g><path d="M 7.460938 0.25 C 9.695312 0.25 11.648438 -0.691406 12.84375 -2.425781 C 13.160156 -2.992188 13.539062 -2.894531 13.476562 -2.234375 C 13.441406 -1.699219 13.378906 -1.324219 13.316406 -0.882812 C 13.222656 -0.378906 13.601562 -0.0625 14.011719 0.03125 C 14.480469 0.09375 15.332031 0.125 15.835938 0.125 C 16.214844 0.125 17.09375 0.09375 17.597656 0 C 18.007812 -0.09375 18.292969 -0.378906 18.292969 -0.882812 C 18.292969 -8.59375 18.230469 -17.503906 17.757812 -21.878906 C 17.726562 -22.320312 17.472656 -22.574219 17.0625 -22.667969 C 16.589844 -22.792969 15.898438 -22.792969 15.175781 -22.792969 C 14.449219 -22.792969 13.726562 -22.761719 13.316406 -22.667969 C 12.941406 -22.574219 12.5625 -22.226562 12.625 -21.785156 C 12.941406 -19.929688 13.347656 -17.316406 13.410156 -14.796875 C 13.441406 -14.167969 13.066406 -14.074219 12.75 -14.578125 C 11.617188 -16.433594 9.664062 -17.347656 7.460938 -17.347656 C 3.464844 -17.347656 0.566406 -14.105469 0.566406 -8.46875 C 0.566406 -2.738281 3.496094 0.25 7.460938 0.25 Z M 9.289062 -3.558594 C 6.863281 -3.558594 5.070312 -5.414062 5.070312 -8.625 C 5.070312 -11.742188 6.800781 -13.601562 9.289062 -13.601562 C 11.710938 -13.601562 13.507812 -11.804688 13.507812 -8.6875 C 13.507812 -5.445312 11.648438 -3.558594 9.289062 -3.558594 Z M 9.289062 -3.558594 "/></g></g></g><g fill="rgb(100%, 70.588684%, 0%)" fill-opacity="1"><g transform="translate(187.440289, 34.118798)"><g><path d="M 9.726562 0.25 C 11.933594 0.25 14.640625 -0.21875 16.183594 -1.257812 C 16.433594 -1.417969 16.589844 -1.761719 16.589844 -2.109375 C 16.558594 -3.023438 16.527344 -4.03125 16.464844 -4.941406 C 16.433594 -5.792969 15.773438 -5.980469 15.300781 -5.414062 C 14.105469 -4.3125 12.058594 -3.527344 10.421875 -3.527344 C 8.25 -3.527344 5.917969 -4.816406 5.164062 -6.578125 C 4.753906 -7.179688 5.132812 -7.652344 5.761719 -7.242188 C 6.988281 -6.578125 8.65625 -6.296875 10.390625 -6.296875 C 13.539062 -6.296875 16.371094 -8.375 16.371094 -11.492188 C 16.371094 -15.332031 13.347656 -17.378906 8.910156 -17.378906 C 4.125 -17.378906 0.566406 -14.261719 0.566406 -8.753906 C 0.566406 -2.992188 4.1875 0.25 9.726562 0.25 Z M 9.160156 -8.722656 C 7.523438 -8.722656 5.039062 -9.289062 5.039062 -10.578125 C 5.039062 -12.625 7.050781 -13.851562 8.972656 -13.851562 C 11.175781 -13.851562 12.089844 -12.875 12.089844 -11.238281 C 12.089844 -9.664062 10.957031 -8.722656 9.160156 -8.722656 Z M 9.160156 -8.722656 "/></g></g></g><g fill="rgb(100%, 70.588684%, 0%)" fill-opacity="1"><g transform="translate(204.630143, 34.118798)"><g><path d="M 8.40625 0.21875 C 13.441406 0.21875 16.121094 -1.761719 16.121094 -4.785156 C 16.121094 -10.515625 5.730469 -9.726562 5.730469 -12.246094 C 5.730469 -13.222656 7.179688 -13.820312 8.972656 -13.820312 C 10.671875 -13.820312 12.53125 -13.222656 13.726562 -12.371094 C 14.199219 -11.933594 14.890625 -11.964844 14.890625 -13.035156 C 14.890625 -13.882812 14.890625 -14.734375 14.859375 -15.585938 C 14.859375 -16.054688 14.546875 -16.464844 14.042969 -16.65625 C 12.5625 -17.09375 10.230469 -17.347656 8.6875 -17.347656 C 4.25 -17.347656 1.039062 -15.742188 1.039062 -12.65625 C 1.039062 -6.988281 11.429688 -7.964844 11.429688 -5.195312 C 11.429688 -3.96875 10.296875 -3.496094 8.152344 -3.496094 C 6.042969 -3.496094 3.433594 -4.375 1.984375 -5.605469 C 1.574219 -6.109375 0.820312 -5.980469 0.753906 -5.070312 C 0.691406 -4.03125 0.660156 -3.023438 0.597656 -1.984375 C 0.566406 -1.417969 0.882812 -1.070312 1.355469 -0.882812 C 3.179688 -0.316406 6.203125 0.21875 8.40625 0.21875 Z M 8.40625 0.21875 "/></g></g></g></svg>