<svg xmlns="http://www.w3.org/2000/svg" xmlns:xlink="http://www.w3.org/1999/xlink" width="300" zoomAndPan="magnify" viewBox="0 0 224.87999 60" height="80" preserveAspectRatio="xMidYMid meet" version="1.0"><defs><g/></defs><g fill="#00132b" fill-opacity="0.4"><g transform="translate(1.859787, 37.99598)"><g><path d="M 14.984375 -17.898438 L 1.082031 -10.921875 L 1.082031 -7.6875 L 14.984375 -0.652344 L 14.984375 -3.679688 L 3.863281 -9.300781 L 14.984375 -14.921875 Z M 14.984375 -17.898438 "/></g></g></g><g fill="#00132b" fill-opacity="0.4"><g transform="translate(18.393015, 37.99598)"><g><path d="M 10.542969 -12.644531 L 10.457031 -10.972656 C 9.765625 -12.105469 8.316406 -12.890625 6.542969 -12.890625 C 3.394531 -12.890625 0.75 -10.480469 0.75 -6.628906 C 0.75 -2.769531 3.382812 -0.296875 6.519531 -0.296875 C 8.167969 -0.296875 9.621094 -1.007812 10.359375 -2.015625 L 10.359375 -0.210938 C 10.359375 2.277344 9.3125 3.691406 7.074219 3.691406 C 5.375 3.691406 4.34375 2.902344 3.628906 1.265625 L 0.6875 2.523438 C 1.613281 4.921875 3.578125 6.445312 7.207031 6.445312 C 11.242188 6.445312 13.914062 4.453125 13.914062 -0.46875 L 13.914062 -12.644531 Z M 7.429688 -3.160156 C 5.597656 -3.160156 4.171875 -4.613281 4.171875 -6.628906 C 4.171875 -8.648438 5.574219 -10.085938 7.429688 -10.085938 C 9.300781 -10.085938 10.703125 -8.585938 10.703125 -6.628906 C 10.703125 -4.664062 9.273438 -3.160156 7.429688 -3.160156 Z M 7.429688 -3.160156 "/></g></g><g transform="translate(34.151247, 37.99598)"><g><path d="M 13.726562 -6.507812 C 13.714844 -10.9375 11.046875 -12.917969 7.46875 -12.917969 C 3.566406 -12.917969 0.824219 -10.480469 0.824219 -6.324219 C 0.824219 -2.164062 3.492188 0.246094 7.578125 0.246094 C 10.417969 0.246094 12.695312 -1.21875 13.53125 -3.777344 L 10.285156 -4.257812 C 9.804688 -3.136719 8.820312 -2.546875 7.554688 -2.546875 C 5.867188 -2.546875 4.464844 -3.554688 4.316406 -5.660156 L 13.691406 -5.660156 Z M 7.492188 -10.40625 C 9.003906 -10.40625 10.136719 -9.507812 10.246094 -7.738281 L 4.378906 -7.738281 C 4.664062 -9.59375 5.804688 -10.40625 7.492188 -10.40625 Z M 7.492188 -10.40625 "/></g></g></g><g fill="#00132b" fill-opacity="0.4"><g transform="translate(48.740837, 37.99598)"><g><path d="M 7.726562 0.246094 C 11.785156 0.246094 14.664062 -2.203125 14.664062 -6.335938 C 14.664062 -10.445312 11.796875 -12.902344 7.726562 -12.902344 C 3.679688 -12.902344 0.800781 -10.445312 0.800781 -6.335938 C 0.800781 -2.203125 3.703125 0.246094 7.726562 0.246094 Z M 7.6875 -2.570312 C 5.707031 -2.570312 4.316406 -4.070312 4.316406 -6.335938 C 4.316406 -8.597656 5.707031 -10.097656 7.6875 -10.097656 C 9.742188 -10.097656 11.144531 -8.597656 11.144531 -6.335938 C 11.144531 -4.070312 9.742188 -2.570312 7.6875 -2.570312 Z M 7.6875 -2.570312 "/></g></g><g transform="translate(64.203833, 37.99598)"><g><path d="M 5.300781 -10.777344 L 5.191406 -12.644531 L 1.832031 -12.644531 L 1.832031 0 L 5.398438 0 L 5.398438 -6.164062 C 5.398438 -8.84375 6.679688 -9.632812 9.363281 -9.632812 L 9.363281 -12.792969 C 7.601562 -12.792969 5.992188 -11.847656 5.300781 -10.777344 Z M 5.300781 -10.777344 "/></g></g></g><g fill="#00132b" fill-opacity="0.4"><g transform="translate(73.79901, 37.99598)"><g><path d="M 10.542969 -12.644531 L 10.457031 -10.972656 C 9.765625 -12.105469 8.316406 -12.890625 6.542969 -12.890625 C 3.394531 -12.890625 0.75 -10.480469 0.75 -6.628906 C 0.75 -2.769531 3.382812 -0.296875 6.519531 -0.296875 C 8.167969 -0.296875 9.621094 -1.007812 10.359375 -2.015625 L 10.359375 -0.210938 C 10.359375 2.277344 9.3125 3.691406 7.074219 3.691406 C 5.375 3.691406 4.34375 2.902344 3.628906 1.265625 L 0.6875 2.523438 C 1.613281 4.921875 3.578125 6.445312 7.207031 6.445312 C 11.242188 6.445312 13.914062 4.453125 13.914062 -0.46875 L 13.914062 -12.644531 Z M 7.429688 -3.160156 C 5.597656 -3.160156 4.171875 -4.613281 4.171875 -6.628906 C 4.171875 -8.648438 5.574219 -10.085938 7.429688 -10.085938 C 9.300781 -10.085938 10.703125 -8.585938 10.703125 -6.628906 C 10.703125 -4.664062 9.273438 -3.160156 7.429688 -3.160156 Z M 7.429688 -3.160156 "/></g></g></g><g fill="#00132b" fill-opacity="0.4"><g transform="translate(89.557243, 37.99598)"><g><path d="M 3.640625 -14.539062 C 4.734375 -14.539062 5.671875 -15.449219 5.671875 -16.582031 C 5.671875 -17.703125 4.734375 -18.613281 3.640625 -18.613281 C 2.523438 -18.613281 1.585938 -17.703125 1.585938 -16.582031 C 1.585938 -15.449219 2.523438 -14.539062 3.640625 -14.539062 Z M 1.832031 0 L 5.398438 0 L 5.398438 -12.644531 L 1.832031 -12.644531 Z M 1.832031 0 "/></g></g></g><g fill="#00132b" fill-opacity="0.4"><g transform="translate(96.79053, 37.99598)"><g><path d="M 13.726562 -6.507812 C 13.714844 -10.9375 11.046875 -12.917969 7.46875 -12.917969 C 3.566406 -12.917969 0.824219 -10.480469 0.824219 -6.324219 C 0.824219 -2.164062 3.492188 0.246094 7.578125 0.246094 C 10.417969 0.246094 12.695312 -1.21875 13.53125 -3.777344 L 10.285156 -4.257812 C 9.804688 -3.136719 8.820312 -2.546875 7.554688 -2.546875 C 5.867188 -2.546875 4.464844 -3.554688 4.316406 -5.660156 L 13.691406 -5.660156 Z M 7.492188 -10.40625 C 9.003906 -10.40625 10.136719 -9.507812 10.246094 -7.738281 L 4.378906 -7.738281 C 4.664062 -9.59375 5.804688 -10.40625 7.492188 -10.40625 Z M 7.492188 -10.40625 "/></g></g><g transform="translate(111.38012, 37.99598)"><g/></g><g transform="translate(117.924522, 37.99598)"><g><path d="M 7.554688 0.234375 C 10.691406 0.234375 13.148438 -1.4375 13.765625 -4.429688 L 10.492188 -4.785156 C 10.097656 -3.285156 9.003906 -2.570312 7.515625 -2.570312 C 5.609375 -2.570312 4.316406 -4.085938 4.316406 -6.335938 C 4.316406 -8.597656 5.609375 -10.097656 7.515625 -10.097656 C 9.003906 -10.097656 10.097656 -9.398438 10.492188 -7.886719 L 13.765625 -8.242188 C 13.148438 -11.230469 10.75 -12.890625 7.554688 -12.890625 C 3.578125 -12.890625 0.773438 -10.273438 0.773438 -6.335938 C 0.773438 -2.410156 3.578125 0.234375 7.554688 0.234375 Z M 7.554688 0.234375 "/></g></g></g><g fill="#00132b" fill-opacity="0.4"><g transform="translate(132.378795, 37.99598)"><g><path d="M 7.726562 0.246094 C 11.785156 0.246094 14.664062 -2.203125 14.664062 -6.335938 C 14.664062 -10.445312 11.796875 -12.902344 7.726562 -12.902344 C 3.679688 -12.902344 0.800781 -10.445312 0.800781 -6.335938 C 0.800781 -2.203125 3.703125 0.246094 7.726562 0.246094 Z M 7.6875 -2.570312 C 5.707031 -2.570312 4.316406 -4.070312 4.316406 -6.335938 C 4.316406 -8.597656 5.707031 -10.097656 7.6875 -10.097656 C 9.742188 -10.097656 11.144531 -8.597656 11.144531 -6.335938 C 11.144531 -4.070312 9.742188 -2.570312 7.6875 -2.570312 Z M 7.6875 -2.570312 "/></g></g></g><g fill="#00132b" fill-opacity="0.4"><g transform="translate(147.841792, 37.99598)"><g><path d="M 10.800781 -18.894531 L 10.800781 -11.121094 C 10.050781 -12.265625 8.585938 -12.890625 6.925781 -12.890625 C 3.605469 -12.890625 0.835938 -10.433594 0.835938 -6.296875 C 0.835938 -2.164062 3.59375 0.296875 6.925781 0.296875 C 8.648438 0.296875 10.171875 -0.40625 10.898438 -1.648438 L 10.984375 0 L 14.34375 0 L 14.34375 -18.894531 Z M 7.738281 -2.644531 C 5.855469 -2.644531 4.378906 -4.035156 4.378906 -6.296875 C 4.378906 -8.574219 5.855469 -9.964844 7.738281 -9.964844 C 9.609375 -9.964844 11.082031 -8.511719 11.082031 -6.296875 C 11.082031 -4.085938 9.621094 -2.644531 7.738281 -2.644531 Z M 7.738281 -2.644531 "/></g></g><g transform="translate(164.018276, 37.99598)"><g><path d="M 13.726562 -6.507812 C 13.714844 -10.9375 11.046875 -12.917969 7.46875 -12.917969 C 3.566406 -12.917969 0.824219 -10.480469 0.824219 -6.324219 C 0.824219 -2.164062 3.492188 0.246094 7.578125 0.246094 C 10.417969 0.246094 12.695312 -1.21875 13.53125 -3.777344 L 10.285156 -4.257812 C 9.804688 -3.136719 8.820312 -2.546875 7.554688 -2.546875 C 5.867188 -2.546875 4.464844 -3.554688 4.316406 -5.660156 L 13.691406 -5.660156 Z M 7.492188 -10.40625 C 9.003906 -10.40625 10.136719 -9.507812 10.246094 -7.738281 L 4.378906 -7.738281 C 4.664062 -9.59375 5.804688 -10.40625 7.492188 -10.40625 Z M 7.492188 -10.40625 "/></g></g></g><g fill="#00132b" fill-opacity="0.4"><g transform="translate(178.607865, 37.99598)"><g><path d="M 6.285156 0.246094 C 9.015625 0.246094 11.488281 -0.800781 11.488281 -3.703125 C 11.488281 -6.410156 9.347656 -7.257812 7.394531 -7.785156 C 5.804688 -8.21875 4.34375 -8.414062 4.34375 -9.410156 C 4.34375 -10.199219 5.140625 -10.53125 6.078125 -10.53125 C 7.109375 -10.53125 7.945312 -10.113281 8.328125 -8.929688 L 11.34375 -9.546875 C 10.851562 -11.957031 8.523438 -12.890625 6.066406 -12.890625 C 3.261719 -12.890625 1.105469 -11.699219 1.105469 -9.101562 C 1.105469 -6.976562 2.558594 -6.164062 4.070312 -5.632812 C 6.078125 -4.921875 8.070312 -4.808594 8.082031 -3.492188 C 8.105469 -2.496094 7.160156 -2.226562 6.285156 -2.226562 C 5.09375 -2.226562 4.132812 -2.753906 3.753906 -4.109375 L 0.789062 -3.273438 C 1.242188 -0.875 3.445312 0.246094 6.285156 0.246094 Z M 6.285156 0.246094 "/></g></g><g transform="translate(191.007786, 37.99598)"><g><path d="M -0.308594 5.007812 L 3.039062 5.007812 L 15.289062 -18.894531 L 11.957031 -18.894531 Z M -0.308594 5.007812 "/></g></g></g><g fill="#00132b" fill-opacity="0.4"><g transform="translate(206.003325, 37.99598)"><g><path d="M 1.550781 -17.898438 L 1.550781 -14.921875 L 12.671875 -9.300781 L 1.550781 -3.679688 L 1.550781 -0.652344 L 15.449219 -7.6875 L 15.449219 -10.921875 Z M 1.550781 -17.898438 "/></g></g></g><g fill="#00132b" fill-opacity="1"><g transform="translate(0.746133, 36.882326)"><g><path d="M 14.984375 -17.898438 L 1.082031 -10.921875 L 1.082031 -7.6875 L 14.984375 -0.652344 L 14.984375 -3.679688 L 3.863281 -9.300781 L 14.984375 -14.921875 Z M 14.984375 -17.898438 "/></g></g></g><g fill="#00132b" fill-opacity="1"><g transform="translate(17.279361, 36.882326)"><g><path d="M 10.542969 -12.644531 L 10.457031 -10.972656 C 9.765625 -12.105469 8.316406 -12.890625 6.542969 -12.890625 C 3.394531 -12.890625 0.75 -10.480469 0.75 -6.628906 C 0.75 -2.769531 3.382812 -0.296875 6.519531 -0.296875 C 8.167969 -0.296875 9.621094 -1.007812 10.359375 -2.015625 L 10.359375 -0.210938 C 10.359375 2.277344 9.3125 3.691406 7.074219 3.691406 C 5.375 3.691406 4.34375 2.902344 3.628906 1.265625 L 0.6875 2.523438 C 1.613281 4.921875 3.578125 6.445312 7.207031 6.445312 C 11.242188 6.445312 13.914062 4.453125 13.914062 -0.46875 L 13.914062 -12.644531 Z M 7.429688 -3.160156 C 5.597656 -3.160156 4.171875 -4.613281 4.171875 -6.628906 C 4.171875 -8.648438 5.574219 -10.085938 7.429688 -10.085938 C 9.300781 -10.085938 10.703125 -8.585938 10.703125 -6.628906 C 10.703125 -4.664062 9.273438 -3.160156 7.429688 -3.160156 Z M 7.429688 -3.160156 "/></g></g><g transform="translate(33.037594, 36.882326)"><g><path d="M 13.726562 -6.507812 C 13.714844 -10.9375 11.046875 -12.917969 7.46875 -12.917969 C 3.566406 -12.917969 0.824219 -10.480469 0.824219 -6.324219 C 0.824219 -2.164062 3.492188 0.246094 7.578125 0.246094 C 10.417969 0.246094 12.695312 -1.21875 13.53125 -3.777344 L 10.285156 -4.257812 C 9.804688 -3.136719 8.820312 -2.546875 7.554688 -2.546875 C 5.867188 -2.546875 4.464844 -3.554688 4.316406 -5.660156 L 13.691406 -5.660156 Z M 7.492188 -10.40625 C 9.003906 -10.40625 10.136719 -9.507812 10.246094 -7.738281 L 4.378906 -7.738281 C 4.664062 -9.59375 5.804688 -10.40625 7.492188 -10.40625 Z M 7.492188 -10.40625 "/></g></g></g><g fill="#00132b" fill-opacity="1"><g transform="translate(47.627183, 36.882326)"><g><path d="M 7.726562 0.246094 C 11.785156 0.246094 14.664062 -2.203125 14.664062 -6.335938 C 14.664062 -10.445312 11.796875 -12.902344 7.726562 -12.902344 C 3.679688 -12.902344 0.800781 -10.445312 0.800781 -6.335938 C 0.800781 -2.203125 3.703125 0.246094 7.726562 0.246094 Z M 7.6875 -2.570312 C 5.707031 -2.570312 4.316406 -4.070312 4.316406 -6.335938 C 4.316406 -8.597656 5.707031 -10.097656 7.6875 -10.097656 C 9.742188 -10.097656 11.144531 -8.597656 11.144531 -6.335938 C 11.144531 -4.070312 9.742188 -2.570312 7.6875 -2.570312 Z M 7.6875 -2.570312 "/></g></g><g transform="translate(63.09018, 36.882326)"><g><path d="M 5.300781 -10.777344 L 5.191406 -12.644531 L 1.832031 -12.644531 L 1.832031 0 L 5.398438 0 L 5.398438 -6.164062 C 5.398438 -8.84375 6.679688 -9.632812 9.363281 -9.632812 L 9.363281 -12.792969 C 7.601562 -12.792969 5.992188 -11.847656 5.300781 -10.777344 Z M 5.300781 -10.777344 "/></g></g></g><g fill="#00132b" fill-opacity="1"><g transform="translate(72.685357, 36.882326)"><g><path d="M 10.542969 -12.644531 L 10.457031 -10.972656 C 9.765625 -12.105469 8.316406 -12.890625 6.542969 -12.890625 C 3.394531 -12.890625 0.75 -10.480469 0.75 -6.628906 C 0.75 -2.769531 3.382812 -0.296875 6.519531 -0.296875 C 8.167969 -0.296875 9.621094 -1.007812 10.359375 -2.015625 L 10.359375 -0.210938 C 10.359375 2.277344 9.3125 3.691406 7.074219 3.691406 C 5.375 3.691406 4.34375 2.902344 3.628906 1.265625 L 0.6875 2.523438 C 1.613281 4.921875 3.578125 6.445312 7.207031 6.445312 C 11.242188 6.445312 13.914062 4.453125 13.914062 -0.46875 L 13.914062 -12.644531 Z M 7.429688 -3.160156 C 5.597656 -3.160156 4.171875 -4.613281 4.171875 -6.628906 C 4.171875 -8.648438 5.574219 -10.085938 7.429688 -10.085938 C 9.300781 -10.085938 10.703125 -8.585938 10.703125 -6.628906 C 10.703125 -4.664062 9.273438 -3.160156 7.429688 -3.160156 Z M 7.429688 -3.160156 "/></g></g></g><g fill="#00132b" fill-opacity="1"><g transform="translate(88.443589, 36.882326)"><g><path d="M 3.640625 -14.539062 C 4.734375 -14.539062 5.671875 -15.449219 5.671875 -16.582031 C 5.671875 -17.703125 4.734375 -18.613281 3.640625 -18.613281 C 2.523438 -18.613281 1.585938 -17.703125 1.585938 -16.582031 C 1.585938 -15.449219 2.523438 -14.539062 3.640625 -14.539062 Z M 1.832031 0 L 5.398438 0 L 5.398438 -12.644531 L 1.832031 -12.644531 Z M 1.832031 0 "/></g></g></g><g fill="#00132b" fill-opacity="1"><g transform="translate(95.676876, 36.882326)"><g><path d="M 13.726562 -6.507812 C 13.714844 -10.9375 11.046875 -12.917969 7.46875 -12.917969 C 3.566406 -12.917969 0.824219 -10.480469 0.824219 -6.324219 C 0.824219 -2.164062 3.492188 0.246094 7.578125 0.246094 C 10.417969 0.246094 12.695312 -1.21875 13.53125 -3.777344 L 10.285156 -4.257812 C 9.804688 -3.136719 8.820312 -2.546875 7.554688 -2.546875 C 5.867188 -2.546875 4.464844 -3.554688 4.316406 -5.660156 L 13.691406 -5.660156 Z M 7.492188 -10.40625 C 9.003906 -10.40625 10.136719 -9.507812 10.246094 -7.738281 L 4.378906 -7.738281 C 4.664062 -9.59375 5.804688 -10.40625 7.492188 -10.40625 Z M 7.492188 -10.40625 "/></g></g><g transform="translate(110.266466, 36.882326)"><g/></g><g transform="translate(116.810869, 36.882326)"><g><path d="M 7.554688 0.234375 C 10.691406 0.234375 13.148438 -1.4375 13.765625 -4.429688 L 10.492188 -4.785156 C 10.097656 -3.285156 9.003906 -2.570312 7.515625 -2.570312 C 5.609375 -2.570312 4.316406 -4.085938 4.316406 -6.335938 C 4.316406 -8.597656 5.609375 -10.097656 7.515625 -10.097656 C 9.003906 -10.097656 10.097656 -9.398438 10.492188 -7.886719 L 13.765625 -8.242188 C 13.148438 -11.230469 10.75 -12.890625 7.554688 -12.890625 C 3.578125 -12.890625 0.773438 -10.273438 0.773438 -6.335938 C 0.773438 -2.410156 3.578125 0.234375 7.554688 0.234375 Z M 7.554688 0.234375 "/></g></g></g><g fill="#00132b" fill-opacity="1"><g transform="translate(131.265141, 36.882326)"><g><path d="M 7.726562 0.246094 C 11.785156 0.246094 14.664062 -2.203125 14.664062 -6.335938 C 14.664062 -10.445312 11.796875 -12.902344 7.726562 -12.902344 C 3.679688 -12.902344 0.800781 -10.445312 0.800781 -6.335938 C 0.800781 -2.203125 3.703125 0.246094 7.726562 0.246094 Z M 7.6875 -2.570312 C 5.707031 -2.570312 4.316406 -4.070312 4.316406 -6.335938 C 4.316406 -8.597656 5.707031 -10.097656 7.6875 -10.097656 C 9.742188 -10.097656 11.144531 -8.597656 11.144531 -6.335938 C 11.144531 -4.070312 9.742188 -2.570312 7.6875 -2.570312 Z M 7.6875 -2.570312 "/></g></g></g><g fill="#00132b" fill-opacity="1"><g transform="translate(146.728138, 36.882326)"><g><path d="M 10.800781 -18.894531 L 10.800781 -11.121094 C 10.050781 -12.265625 8.585938 -12.890625 6.925781 -12.890625 C 3.605469 -12.890625 0.835938 -10.433594 0.835938 -6.296875 C 0.835938 -2.164062 3.59375 0.296875 6.925781 0.296875 C 8.648438 0.296875 10.171875 -0.40625 10.898438 -1.648438 L 10.984375 0 L 14.34375 0 L 14.34375 -18.894531 Z M 7.738281 -2.644531 C 5.855469 -2.644531 4.378906 -4.035156 4.378906 -6.296875 C 4.378906 -8.574219 5.855469 -9.964844 7.738281 -9.964844 C 9.609375 -9.964844 11.082031 -8.511719 11.082031 -6.296875 C 11.082031 -4.085938 9.621094 -2.644531 7.738281 -2.644531 Z M 7.738281 -2.644531 "/></g></g><g transform="translate(162.904622, 36.882326)"><g><path d="M 13.726562 -6.507812 C 13.714844 -10.9375 11.046875 -12.917969 7.46875 -12.917969 C 3.566406 -12.917969 0.824219 -10.480469 0.824219 -6.324219 C 0.824219 -2.164062 3.492188 0.246094 7.578125 0.246094 C 10.417969 0.246094 12.695312 -1.21875 13.53125 -3.777344 L 10.285156 -4.257812 C 9.804688 -3.136719 8.820312 -2.546875 7.554688 -2.546875 C 5.867188 -2.546875 4.464844 -3.554688 4.316406 -5.660156 L 13.691406 -5.660156 Z M 7.492188 -10.40625 C 9.003906 -10.40625 10.136719 -9.507812 10.246094 -7.738281 L 4.378906 -7.738281 C 4.664062 -9.59375 5.804688 -10.40625 7.492188 -10.40625 Z M 7.492188 -10.40625 "/></g></g></g><g fill="#00132b" fill-opacity="1"><g transform="translate(177.494212, 36.882326)"><g><path d="M 6.285156 0.246094 C 9.015625 0.246094 11.488281 -0.800781 11.488281 -3.703125 C 11.488281 -6.410156 9.347656 -7.257812 7.394531 -7.785156 C 5.804688 -8.21875 4.34375 -8.414062 4.34375 -9.410156 C 4.34375 -10.199219 5.140625 -10.53125 6.078125 -10.53125 C 7.109375 -10.53125 7.945312 -10.113281 8.328125 -8.929688 L 11.34375 -9.546875 C 10.851562 -11.957031 8.523438 -12.890625 6.066406 -12.890625 C 3.261719 -12.890625 1.105469 -11.699219 1.105469 -9.101562 C 1.105469 -6.976562 2.558594 -6.164062 4.070312 -5.632812 C 6.078125 -4.921875 8.070312 -4.808594 8.082031 -3.492188 C 8.105469 -2.496094 7.160156 -2.226562 6.285156 -2.226562 C 5.09375 -2.226562 4.132812 -2.753906 3.753906 -4.109375 L 0.789062 -3.273438 C 1.242188 -0.875 3.445312 0.246094 6.285156 0.246094 Z M 6.285156 0.246094 "/></g></g><g transform="translate(189.894132, 36.882326)"><g><path d="M -0.308594 5.007812 L 3.039062 5.007812 L 15.289062 -18.894531 L 11.957031 -18.894531 Z M -0.308594 5.007812 "/></g></g></g><g fill="#00132b" fill-opacity="1"><g transform="translate(204.889672, 36.882326)"><g><path d="M 1.550781 -17.898438 L 1.550781 -14.921875 L 12.671875 -9.300781 L 1.550781 -3.679688 L 1.550781 -0.652344 L 15.449219 -7.6875 L 15.449219 -10.921875 Z M 1.550781 -17.898438 "/></g></g></g><g fill="#00132b" fill-opacity="0.4"><g transform="translate(112.201504, 51.073517)"><g/></g></g><g fill="#00132b" fill-opacity="1"><g transform="translate(111.08785, 49.959863)"><g/></g></g></svg>